<svg width="24" height="25" viewBox="0 0 24 25" fill="none" xmlns="http://www.w3.org/2000/svg">
<path d="M7 5.5C6.46957 5.5 5.96086 5.71071 5.58579 6.08579C5.21071 6.46086 5 6.96957 5 7.5V17.5C5 18.0304 5.21071 18.5391 5.58579 18.9142C5.96086 19.2893 6.46957 19.5 7 19.5H17C17.5304 19.5 18.0391 19.2893 18.4142 18.9142C18.7893 18.5391 19 18.0304 19 17.5V7.5C19 6.96957 18.7893 6.46086 18.4142 6.08579C18.0391 5.71071 17.5304 5.5 17 5.5H7ZM11 15.914L8.293 13.207L9.707 11.793L11 13.086L14.793 9.293L16.207 10.707L11 15.914Z" fill="black"/>
</svg>
